<svg data-v-d3f97b9e="" xmlns="http://www.w3.org/2000/svg" viewBox="0 0 391 90"><!----><!----><!----><g data-v-d3f97b9e="" id="4522fb31-6cc4-4f47-9ca2-35a38c86db24" fill="#261624" transform="matrix(5.72519063949585,0,0,5.72519063949585,132.4411163330078,-3.091604709625244)"><path d="M8.41 13.55L4.66 9.20L2.87 11.02L2.87 13.55L1.47 13.55L1.47 3.75L2.87 3.75L2.87 9.23L8.19 3.75L9.79 3.75L5.60 8.16L10.05 13.55L8.41 13.55ZM18.05 9.88L18.05 9.88Q18.05 10.04 18.02 10.29L18.02 10.29L12.00 10.29L12.00 10.29Q12.12 11.27 12.86 11.87L12.86 11.87L12.86 11.87Q13.59 12.46 14.69 12.46L14.69 12.46L14.69 12.46Q16.02 12.46 16.83 11.56L16.83 11.56L17.57 12.43L17.57 12.43Q17.07 13.02 16.32 13.33L16.32 13.33L16.32 13.33Q15.57 13.64 14.64 13.64L14.64 13.64L14.64 13.64Q13.47 13.64 12.56 13.15L12.56 13.15L12.56 13.15Q11.65 12.67 11.15 11.80L11.15 11.80L11.15 11.80Q10.65 10.93 10.65 9.84L10.65 9.84L10.65 9.84Q10.65 8.76 11.14 7.90L11.14 7.90L11.14 7.90Q11.62 7.03 12.47 6.54L12.47 6.54L12.47 6.54Q13.31 6.06 14.38 6.06L14.38 6.06L14.38 6.06Q15.44 6.06 16.28 6.54L16.28 6.54L16.28 6.54Q17.11 7.03 17.58 7.90L17.58 7.90L17.58 7.90Q18.05 8.76 18.05 9.88L18.05 9.88ZM14.38 7.20L14.38 7.20Q13.41 7.20 12.76 7.78L12.76 7.78L12.76 7.78Q12.11 8.37 12.00 9.32L12.00 9.32L16.76 9.32L16.76 9.32Q16.65 8.39 16.00 7.79L16.00 7.79L16.00 7.79Q15.34 7.20 14.38 7.20L14.38 7.20ZM23.09 13.64L23.09 13.64Q21.98 13.64 21.10 13.15L21.10 13.15L21.10 13.15Q20.22 12.66 19.72 11.79L19.72 11.79L19.72 11.79Q19.22 10.93 19.22 9.84L19.22 9.84L19.22 9.84Q19.22 8.75 19.72 7.89L19.72 7.89L19.72 7.89Q20.22 7.03 21.10 6.54L21.10 6.54L21.10 6.54Q21.98 6.06 23.09 6.06L23.09 6.06L23.09 6.06Q24.19 6.06 25.07 6.54L25.07 6.54L25.07 6.54Q25.94 7.03 26.44 7.89L26.44 7.89L26.44 7.89Q26.94 8.75 26.94 9.84L26.94 9.84L26.94 9.84Q26.94 10.93 26.44 11.79L26.44 11.79L26.44 11.79Q25.94 12.66 25.07 13.15L25.07 13.15L25.07 13.15Q24.19 13.64 23.09 13.64L23.09 13.64ZM23.09 12.46L23.09 12.46Q23.80 12.46 24.37 12.13L24.37 12.13L24.37 12.13Q24.93 11.80 25.26 11.21L25.26 11.21L25.26 11.21Q25.58 10.61 25.58 9.84L25.58 9.84L25.58 9.84Q25.58 9.07 25.26 8.48L25.26 8.48L25.26 8.48Q24.93 7.88 24.37 7.56L24.37 7.56L24.37 7.56Q23.80 7.24 23.09 7.24L23.09 7.24L23.09 7.24Q22.37 7.24 21.80 7.56L21.80 7.56L21.80 7.56Q21.24 7.88 20.91 8.48L20.91 8.48L20.91 8.48Q20.58 9.07 20.58 9.84L20.58 9.84L20.58 9.84Q20.58 10.61 20.91 11.21L20.91 11.21L20.91 11.21Q21.24 11.80 21.80 12.13L21.80 12.13L21.80 12.13Q22.37 12.46 23.09 12.46L23.09 12.46ZM34.45 3.16L35.80 3.16L35.80 13.55L34.51 13.55L34.51 12.38L34.51 12.38Q34.06 12.99 33.38 13.31L33.38 13.31L33.38 13.31Q32.69 13.64 31.86 13.64L31.86 13.64L31.86 13.64Q30.79 13.64 29.93 13.16L29.93 13.16L29.93 13.16Q29.08 12.68 28.60 11.82L28.60 11.82L28.60 11.82Q28.11 10.96 28.11 9.84L28.11 9.84L28.11 9.84Q28.11 8.72 28.60 7.87L28.60 7.87L28.60 7.87Q29.08 7.01 29.93 6.54L29.93 6.54L29.93 6.54Q30.79 6.06 31.86 6.06L31.86 6.06L31.86 6.06Q32.66 6.06 33.33 6.36L33.33 6.36L33.33 6.36Q34.01 6.66 34.45 7.25L34.45 7.25L34.45 3.16ZM31.98 12.46L31.98 12.46Q32.68 12.46 33.25 12.13L33.25 12.13L33.25 12.13Q33.82 11.80 34.15 11.21L34.15 11.21L34.15 11.21Q34.47 10.61 34.47 9.84L34.47 9.84L34.47 9.84Q34.47 9.07 34.15 8.48L34.15 8.48L34.15 8.48Q33.82 7.88 33.25 7.56L33.25 7.56L33.25 7.56Q32.68 7.24 31.98 7.24L31.98 7.24L31.98 7.24Q31.26 7.24 30.70 7.56L30.70 7.56L30.70 7.56Q30.13 7.88 29.80 8.48L29.80 8.48L29.80 8.48Q29.47 9.07 29.47 9.84L29.47 9.84L29.47 9.84Q29.47 10.61 29.80 11.21L29.80 11.21L29.80 11.21Q30.13 11.80 30.70 12.13L30.70 12.13L30.70 12.13Q31.26 12.46 31.98 12.46L31.98 12.46ZM45.05 9.88L45.05 9.88Q45.05 10.04 45.02 10.29L45.02 10.29L39.00 10.29L39.00 10.29Q39.13 11.27 39.87 11.87L39.87 11.87L39.87 11.87Q40.60 12.46 41.69 12.46L41.69 12.46L41.69 12.46Q43.02 12.46 43.83 11.56L43.83 11.56L44.58 12.43L44.58 12.43Q44.07 13.02 43.32 13.33L43.32 13.33L43.32 13.33Q42.57 13.64 41.65 13.64L41.65 13.64L41.65 13.64Q40.47 13.64 39.56 13.15L39.56 13.15L39.56 13.15Q38.65 12.67 38.16 11.80L38.16 11.80L38.16 11.80Q37.66 10.93 37.66 9.84L37.66 9.84L37.66 9.84Q37.66 8.76 38.14 7.90L38.14 7.90L38.14 7.90Q38.63 7.03 39.47 6.54L39.47 6.54L39.47 6.54Q40.32 6.06 41.38 6.06L41.38 6.06L41.38 6.06Q42.45 6.06 43.28 6.54L43.28 6.54L43.28 6.54Q44.11 7.03 44.58 7.90L44.58 7.90L44.58 7.90Q45.05 8.76 45.05 9.88L45.05 9.88ZM41.38 7.20L41.38 7.20Q40.42 7.20 39.77 7.78L39.77 7.78L39.77 7.78Q39.12 8.37 39.00 9.32L39.00 9.32L43.76 9.32L43.76 9.32Q43.65 8.39 43.00 7.79L43.00 7.79L43.00 7.79Q42.35 7.20 41.38 7.20L41.38 7.20Z"></path></g><linearGradient data-v-d3f97b9e="" gradientTransform="rotate(25)" id="867b868a-3bb6-4bb1-9ccf-729e56723f77" x1="0%" y1="0%" x2="100%" y2="0%"><stop data-v-d3f97b9e="" offset="0%" style="stop-color: rgb(233, 140, 0); stop-opacity: 1;"></stop><stop data-v-d3f97b9e="" offset="100%" style="stop-color: rgb(143, 91, 254); stop-opacity: 1;"></stop></linearGradient><g data-v-d3f97b9e="" id="b514c3c0-7abb-40cf-8147-8e2d52f22d99" transform="matrix(1.2857142686843872,0,0,1.2857142686843872,0.5714293718338013,5.960464477539062e-7)" stroke="none" fill="url(#867b868a-3bb6-4bb1-9ccf-729e56723f77)"><path d="M77.5 33H55v-6h33V6H55V0H36v6H16.5L0 14.1V19l16.5 8H36v6H6v21h30v16h3V57h13v13h3V54h22.5L94 45.9V41l-16.5-8zM39 3h13v3H39V3zM17.2 24L3 17.1V16l14.2-7H85v15H17.2zM52 30v3H39v-3h13zm39 14.1L76.8 51H9V36h67.8L91 42.9v1.2z"></path><path d="M20 12h43v3H20zM44 40h30v3H44zM31 40h10v3H31zM66 12h10v3H66z"></path></g><!----></svg>