<svg data-v-d3f97b9e=""
    xmlns="http://www.w3.org/2000/svg" viewBox="0 0 351 90">
    <g data-v-d3f97b9e="" id="f80c7f8c-3be8-44bb-b1fd-5bbb3cce0aeb" fill="#000000" transform="matrix(5.459508419036865,0,0,5.459508419036865,102.35667419433594,-7.643312931060791)">
        <path d="M2.86 11.61L2.86 11.61Q2.86 11.91 2.65 12.12L2.65 12.12L2.65 12.12Q2.44 12.33 2.13 12.33L2.13 12.33L2.13 12.33Q1.83 12.33 1.62 12.12L1.62 12.12L1.62 12.12Q1.40 11.91 1.40 11.61L1.40 11.61L1.40 2.13L1.40 2.13Q1.40 1.82 1.62 1.61L1.62 1.61L1.62 1.61Q1.83 1.40 2.13 1.40L2.13 1.40L2.13 1.40Q2.44 1.40 2.65 1.61L2.65 1.61L2.65 1.61Q2.86 1.82 2.86 2.13L2.86 2.13L2.86 6.33L7.49 1.69L7.49 1.69Q7.66 1.53 7.79 1.46L7.79 1.46L7.79 1.46Q7.92 1.40 8.09 1.40L8.09 1.40L8.09 1.40Q8.39 1.40 8.55 1.57L8.55 1.57L8.55 1.57Q8.71 1.75 8.71 2.00L8.71 2.00L8.71 2.00Q8.71 2.37 8.44 2.63L8.44 2.63L4.87 6.22L8.51 11.17L8.51 11.17Q8.65 11.37 8.65 11.62L8.65 11.62L8.65 11.62Q8.65 11.90 8.47 12.12L8.47 12.12L8.47 12.12Q8.29 12.33 8.01 12.33L8.01 12.33L8.01 12.33Q7.62 12.33 7.41 12.03L7.41 12.03L3.86 7.22L2.86 8.23L2.86 11.61ZM17.47 8.39L17.47 8.39Q17.47 8.65 17.29 8.83L17.29 8.83L17.29 8.83Q17.11 9.00 16.83 9.00L16.83 9.00L11.51 9.00L11.51 9.00Q11.66 9.98 12.40 10.58L12.40 10.58L12.40 10.58Q13.13 11.19 14.20 11.19L14.20 11.19L14.20 11.19Q14.62 11.19 15.07 11.03L15.07 11.03L15.07 11.03Q15.53 10.88 15.82 10.65L15.82 10.65L15.82 10.65Q16.02 10.50 16.28 10.50L16.28 10.50L16.28 10.50Q16.55 10.50 16.70 10.64L16.70 10.64L16.70 10.64Q16.95 10.85 16.95 11.12L16.95 11.12L16.95 11.12Q16.95 11.37 16.73 11.54L16.73 11.54L16.73 11.54Q16.25 11.91 15.55 12.15L15.55 12.15L15.55 12.15Q14.84 12.39 14.20 12.39L14.20 12.39L14.20 12.39Q13.05 12.39 12.14 11.89L12.14 11.89L12.14 11.89Q11.23 11.40 10.72 10.51L10.72 10.51L10.72 10.51Q10.21 9.63 10.21 8.51L10.21 8.51L10.21 8.51Q10.21 7.39 10.69 6.50L10.69 6.50L10.69 6.50Q11.17 5.61 12.03 5.12L12.03 5.12L12.03 5.12Q12.89 4.62 13.99 4.62L13.99 4.62L13.99 4.62Q15.06 4.62 15.85 5.10L15.85 5.10L15.85 5.10Q16.63 5.57 17.05 6.43L17.05 6.43L17.05 6.43Q17.47 7.28 17.47 8.39L17.47 8.39ZM13.99 5.82L13.99 5.82Q12.96 5.82 12.33 6.38L12.33 6.38L12.33 6.38Q11.69 6.94 11.52 7.88L11.52 7.88L16.18 7.88L16.18 7.88Q16.06 6.94 15.48 6.38L15.48 6.38L15.48 6.38Q14.91 5.82 13.99 5.82L13.99 5.82ZM22.76 4.62L22.76 4.62Q23.87 4.62 24.75 5.12L24.75 5.12L24.75 5.12Q25.62 5.61 26.12 6.50L26.12 6.50L26.12 6.50Q26.61 7.38 26.61 8.51L26.61 8.51L26.61 8.51Q26.61 9.63 26.12 10.51L26.12 10.51L26.12 10.51Q25.63 11.40 24.76 11.89L24.76 11.89L24.76 11.89Q23.88 12.39 22.76 12.39L22.76 12.39L22.76 12.39Q21.64 12.39 20.76 11.89L20.76 11.89L20.76 11.89Q19.88 11.40 19.39 10.51L19.39 10.51L19.39 10.51Q18.90 9.63 18.90 8.51L18.90 8.51L18.90 8.51Q18.90 7.38 19.39 6.50L19.39 6.50L19.39 6.50Q19.88 5.61 20.76 5.12L20.76 5.12L20.76 5.12Q21.64 4.62 22.76 4.62L22.76 4.62ZM22.76 5.88L22.76 5.88Q22.05 5.88 21.48 6.22L21.48 6.22L21.48 6.22Q20.92 6.55 20.59 7.15L20.59 7.15L20.59 7.15Q20.27 7.76 20.27 8.51L20.27 8.51L20.27 8.51Q20.27 9.27 20.59 9.86L20.59 9.86L20.59 9.86Q20.92 10.46 21.48 10.79L21.48 10.79L21.48 10.79Q22.05 11.13 22.76 11.13L22.76 11.13L22.76 11.13Q23.48 11.13 24.05 10.79L24.05 10.79L24.05 10.79Q24.61 10.46 24.93 9.86L24.93 9.86L24.93 9.86Q25.24 9.27 25.24 8.51L25.24 8.51L25.24 8.51Q25.24 7.76 24.93 7.15L24.93 7.15L24.93 7.15Q24.61 6.55 24.05 6.22L24.05 6.22L24.05 6.22Q23.48 5.88 22.76 5.88L22.76 5.88ZM35.35 1.40L35.35 1.40Q35.67 1.40 35.87 1.60L35.87 1.60L35.87 1.60Q36.06 1.79 36.06 2.11L36.06 2.11L36.06 8.50L36.06 8.50Q36.06 9.59 35.55 10.48L35.55 10.48L35.55 10.48Q35.04 11.37 34.17 11.88L34.17 11.88L34.17 11.88Q33.29 12.39 32.21 12.39L32.21 12.39L32.21 12.39Q31.14 12.39 30.25 11.88L30.25 11.88L30.25 11.88Q29.36 11.37 28.85 10.48L28.85 10.48L28.85 10.48Q28.35 9.59 28.35 8.50L28.35 8.50L28.35 8.50Q28.35 7.41 28.82 6.52L28.82 6.52L28.82 6.52Q29.29 5.63 30.11 5.12L30.11 5.12L30.11 5.12Q30.93 4.62 31.93 4.62L31.93 4.62L31.93 4.62Q32.75 4.62 33.45 4.96L33.45 4.96L33.45 4.96Q34.15 5.29 34.64 5.89L34.64 5.89L34.64 2.11L34.64 2.11Q34.64 1.79 34.84 1.60L34.84 1.60L34.84 1.60Q35.04 1.40 35.35 1.40L35.35 1.40ZM32.21 11.13L32.21 11.13Q32.91 11.13 33.48 10.79L33.48 10.79L33.48 10.79Q34.05 10.44 34.37 9.84L34.37 9.84L34.37 9.84Q34.69 9.24 34.69 8.50L34.69 8.50L34.69 8.50Q34.69 7.76 34.37 7.16L34.37 7.16L34.37 7.16Q34.05 6.57 33.48 6.22L33.48 6.22L33.48 6.22Q32.91 5.88 32.21 5.88L32.21 5.88L32.21 5.88Q31.51 5.88 30.95 6.22L30.95 6.22L30.95 6.22Q30.38 6.57 30.05 7.16L30.05 7.16L30.05 7.16Q29.72 7.76 29.72 8.50L29.72 8.50L29.72 8.50Q29.72 9.24 30.05 9.84L30.05 9.84L30.05 9.84Q30.38 10.44 30.95 10.79L30.95 10.79L30.95 10.79Q31.51 11.13 32.21 11.13L32.21 11.13ZM45.46 8.39L45.46 8.39Q45.46 8.65 45.28 8.83L45.28 8.83L45.28 8.83Q45.09 9.00 44.81 9.00L44.81 9.00L39.49 9.00L39.49 9.00Q39.65 9.98 40.38 10.58L40.38 10.58L40.38 10.58Q41.12 11.19 42.18 11.19L42.18 11.19L42.18 11.19Q42.60 11.19 43.06 11.03L43.06 11.03L43.06 11.03Q43.51 10.88 43.81 10.65L43.81 10.65L43.81 10.65Q44.00 10.50 44.27 10.50L44.27 10.50L44.27 10.50Q44.53 10.50 44.69 10.64L44.69 10.64L44.69 10.64Q44.94 10.85 44.94 11.12L44.94 11.12L44.94 11.12Q44.94 11.37 44.72 11.54L44.72 11.54L44.72 11.54Q44.24 11.91 43.53 12.15L43.53 12.15L43.53 12.15Q42.83 12.39 42.18 12.39L42.18 12.39L42.18 12.39Q41.03 12.39 40.12 11.89L40.12 11.89L40.12 11.89Q39.21 11.40 38.70 10.51L38.70 10.51L38.70 10.51Q38.19 9.63 38.19 8.51L38.19 8.51L38.19 8.51Q38.19 7.39 38.68 6.50L38.68 6.50L38.68 6.50Q39.16 5.61 40.02 5.12L40.02 5.12L40.02 5.12Q40.88 4.62 41.97 4.62L41.97 4.62L41.97 4.62Q43.05 4.62 43.83 5.10L43.83 5.10L43.83 5.10Q44.62 5.57 45.04 6.43L45.04 6.43L45.04 6.43Q45.46 7.28 45.46 8.39L45.46 8.39ZM41.97 5.82L41.97 5.82Q40.95 5.82 40.31 6.38L40.31 6.38L40.31 6.38Q39.68 6.94 39.51 7.88L39.51 7.88L44.17 7.88L44.17 7.88Q44.04 6.94 43.47 6.38L43.47 6.38L43.47 6.38Q42.90 5.82 41.97 5.82L41.97 5.82Z"></path>
    </g>
    <linearGradient data-v-d3f97b9e="" gradientTransform="rotate(25)" id="9f4f38ed-4903-4cb7-ab51-02cd2790ce4c" x1="2.5" y1="1" x2="16" y2="5.5" gradientUnits="userSpaceOnUse">
        <stop data-v-d3f97b9e="" offset="0%" style="stop-color: rgb(224, 48, 47); stop-opacity: 1;"></stop>
        <stop data-v-d3f97b9e="" offset="100%" style="stop-color: rgb(50, 129, 221); stop-opacity: 1;"></stop>
    </linearGradient>
    <g data-v-d3f97b9e="" id="15cfd6ab-0e3f-4ff6-8426-6550e1e18565" transform="matrix(6.4285712242126465,0,0,6.4285712242126465,-6.428569793701172,-6.428569793701172)" stroke="none" fill="url(#9f4f38ed-4903-4cb7-ab51-02cd2790ce4c)">
        <path d="M7 5l2-2-2-2-2 2-2-2-2 2 2 2-2 2 2 2 2-2 2 2 2-2zM9 11L7 9l-2 2 4 4 6-6-2-2z"></path>
    </g>
    <g data-v-d3f97b9e="" id="4690c01f-5f4b-4c9f-a610-c5ad6effa401" fill="#000000" transform="matrix(0.9402753114700317,0,0,0.9402753114700317,109.6427001953125,57.29201126098633)">
        <path d="M0.96 3.64L0.38 3.64L0.38 3.08L3.88 3.08L3.88 3.64L3.43 3.64L3.43 3.64Q3.03 3.64 2.93 3.73L2.93 3.73L2.93 3.73Q2.82 3.84 2.82 4.28L2.82 4.28L2.82 7.50L6.90 4.18L6.90 4.18Q7.25 3.89 7.25 3.77L7.25 3.77L7.25 3.77Q7.25 3.64 6.61 3.64L6.61 3.64L6.06 3.64L6.04 3.08L9.39 3.08L9.39 3.64L9.03 3.64L9.03 3.64Q8.60 3.64 8.39 3.76L8.39 3.76L8.39 3.76Q8.22 3.86 7.33 4.55L7.33 4.55L4.17 7.08L8.40 11.49L8.40 11.49Q8.76 11.87 9.00 11.87L9.00 11.87L9.82 11.87L9.79 12.41L7.59 12.41L3.33 7.74L2.82 8.16L2.82 11.22L2.82 11.22Q2.82 11.70 2.98 11.79L2.98 11.79L2.98 11.79Q3.15 11.87 3.92 11.87L3.92 11.87L4.22 11.87L4.22 12.41L0.64 12.41L0.63 11.87L1.00 11.87L1.00 11.87Q1.51 11.87 1.60 11.79L1.60 11.79L1.60 11.79Q1.68 11.70 1.68 11.25L1.68 11.25L1.68 4.14L1.68 4.14Q1.68 3.77 1.58 3.71L1.58 3.71L1.58 3.71Q1.47 3.64 0.96 3.64L0.96 3.64ZM17.56 3.64L17.55 3.08L24.76 3.08L24.76 3.08Q24.77 4.14 24.83 5.28L24.83 5.28L24.28 5.30L24.28 5.30Q24.27 4.66 24.21 4.25L24.21 4.25L24.21 4.25Q24.17 3.89 24.12 3.80L24.12 3.80L24.12 3.80Q24.06 3.71 23.95 3.69L23.95 3.69L23.95 3.69Q23.85 3.68 23.26 3.68L23.26 3.68L20.88 3.68L20.88 3.68Q20.34 3.68 20.19 3.77L20.19 3.77L20.19 3.77Q20.07 3.86 20.07 4.33L20.07 4.33L20.07 6.28L20.07 6.28Q20.07 6.69 20.13 6.76L20.13 6.76L20.13 6.76Q20.19 6.84 20.54 6.84L20.54 6.84L22.65 6.84L22.65 6.84Q23.01 6.84 23.09 6.73L23.09 6.73L23.09 6.73Q23.17 6.63 23.18 6.14L23.18 6.14L23.18 5.61L23.69 5.63L23.69 8.97L23.18 8.97L23.18 8.24L23.18 8.24Q23.18 7.66 23.11 7.57L23.11 7.57L23.11 7.57Q23.02 7.46 22.67 7.46L22.67 7.46L20.58 7.46L20.58 7.46Q20.24 7.46 20.16 7.54L20.16 7.54L20.16 7.54Q20.07 7.63 20.07 7.89L20.07 7.89L20.07 11.20L20.07 11.20Q20.07 11.57 20.16 11.67L20.16 11.67L20.16 11.67Q20.24 11.77 20.51 11.77L20.51 11.77L20.51 11.77Q23.43 11.75 23.96 11.69L23.96 11.69L23.96 11.69Q24.48 11.63 24.56 11.38L24.56 11.38L24.57 11.36L24.58 11.35L24.80 10.17L25.28 10.25L24.93 12.41L17.83 12.41L17.83 11.87L18.20 11.87L18.20 11.87Q18.76 11.87 18.84 11.80L18.84 11.80L18.84 11.80Q18.94 11.72 18.94 11.33L18.94 11.33L18.94 4.24L18.94 4.24Q18.94 3.82 18.79 3.73L18.79 3.73L18.79 3.73Q18.61 3.64 17.96 3.64L17.96 3.64L17.56 3.64ZM33.17 3.64L33.15 3.08L40.37 3.08L40.37 3.08Q40.38 4.14 40.43 5.28L40.43 5.28L39.89 5.30L39.89 5.30Q39.87 4.66 39.82 4.25L39.82 4.25L39.82 4.25Q39.78 3.89 39.72 3.80L39.72 3.80L39.72 3.80Q39.67 3.71 39.55 3.69L39.55 3.69L39.55 3.69Q39.46 3.68 38.87 3.68L38.87 3.68L36.49 3.68L36.49 3.68Q35.94 3.68 35.80 3.77L35.80 3.77L35.80 3.77Q35.68 3.86 35.68 4.33L35.68 4.33L35.68 6.28L35.68 6.28Q35.68 6.69 35.73 6.76L35.73 6.76L35.73 6.76Q35.80 6.84 36.14 6.84L36.14 6.84L38.25 6.84L38.25 6.84Q38.62 6.84 38.70 6.73L38.70 6.73L38.70 6.73Q38.78 6.63 38.79 6.14L38.79 6.14L38.79 5.61L39.30 5.63L39.30 8.97L38.79 8.97L38.79 8.24L38.79 8.24Q38.79 7.66 38.71 7.57L38.71 7.57L38.71 7.57Q38.63 7.46 38.28 7.46L38.28 7.46L36.18 7.46L36.18 7.46Q35.85 7.46 35.76 7.54L35.76 7.54L35.76 7.54Q35.68 7.63 35.68 7.89L35.68 7.89L35.68 11.20L35.68 11.20Q35.68 11.57 35.76 11.67L35.76 11.67L35.76 11.67Q35.85 11.77 36.12 11.77L36.12 11.77L36.12 11.77Q39.04 11.75 39.57 11.69L39.57 11.69L39.57 11.69Q40.09 11.63 40.17 11.38L40.17 11.38L40.17 11.36L40.18 11.35L40.41 10.17L40.89 10.25L40.54 12.41L33.43 12.41L33.43 11.87L33.80 11.87L33.80 11.87Q34.36 11.87 34.45 11.80L34.45 11.80L34.45 11.80Q34.54 11.72 34.54 11.33L34.54 11.33L34.54 4.24L34.54 4.24Q34.54 3.82 34.39 3.73L34.39 3.73L34.39 3.73Q34.22 3.64 33.56 3.64L33.56 3.64L33.17 3.64ZM52.49 12.41L48.76 12.41L48.76 11.87L49.20 11.87L49.20 11.87Q49.57 11.87 49.63 11.81L49.63 11.81L49.63 11.81Q49.70 11.74 49.70 11.46L49.70 11.46L49.70 4.14L49.70 4.14Q49.70 3.81 49.62 3.72L49.62 3.72L49.62 3.72Q49.53 3.64 49.17 3.64L49.17 3.64L48.80 3.64L48.82 3.08L51.70 3.08L51.70 3.08Q52.85 3.08 53.50 3.19L53.50 3.19L53.50 3.19Q54.10 3.28 54.57 3.68L54.57 3.68L54.57 3.68Q55.76 4.64 55.76 6.19L55.76 6.19L55.76 6.19Q55.76 7.23 55.00 7.98L55.00 7.98L55.00 7.98Q54.22 8.74 52.81 8.73L52.81 8.73L52.81 8.73Q52.64 8.73 52.22 8.70L52.22 8.70L52.22 8.70Q52.11 8.69 51.69 8.62L51.69 8.62L51.69 8.62Q51.35 8.55 51.26 8.54L51.26 8.54L51.26 8.54Q50.96 8.47 50.95 8.46L50.95 8.46L50.83 8.44L50.83 11.46L50.83 11.46Q50.83 11.74 50.96 11.81L50.96 11.81L50.96 11.81Q51.07 11.87 51.79 11.87L51.79 11.87L52.49 11.87L52.49 12.41ZM50.83 4.28L50.83 8.02L50.83 8.02Q51.18 8.29 52.15 8.29L52.15 8.29L52.15 8.29Q53.29 8.29 53.86 7.75L53.86 7.75L53.86 7.75Q54.45 7.21 54.45 6.16L54.45 6.16L54.45 6.16Q54.45 4.98 53.54 4.31L53.54 4.31L53.54 4.31Q52.64 3.64 51.26 3.64L51.26 3.64L51.26 3.64Q51.00 3.64 50.92 3.75L50.92 3.75L50.92 3.75Q50.84 3.84 50.83 4.28L50.83 4.28ZM73.69 7.83L73.69 7.83L73.69 7.83Q73.69 6.62 74.09 5.68L74.09 5.68L74.09 5.68Q74.51 4.72 75.20 4.12L75.20 4.12L75.20 4.12Q75.89 3.51 76.75 3.19L76.75 3.19L76.75 3.19Q77.59 2.88 78.54 2.88L78.54 2.88L78.54 2.88Q79.80 2.88 80.86 3.40L80.86 3.40L80.86 3.40Q81.94 3.93 82.65 5.07L82.65 5.07L82.65 5.07Q83.34 6.17 83.35 7.75L83.35 7.75L83.35 7.75Q83.35 8.70 83.04 9.54L83.04 9.54L83.04 9.54Q82.74 10.38 82.13 11.10L82.13 11.10L82.13 11.10Q81.53 11.81 80.59 12.22L80.59 12.22L80.59 12.22Q79.63 12.63 78.44 12.64L78.44 12.64L78.44 12.64Q77.30 12.64 76.36 12.23L76.36 12.23L76.36 12.23Q75.43 11.83 74.87 11.14L74.87 11.14L74.87 11.14Q74.29 10.45 74.00 9.60L74.00 9.60L74.00 9.60Q73.69 8.72 73.69 7.83ZM74.95 7.38L74.95 7.38L74.95 7.38Q74.95 8.52 75.38 9.60L75.38 9.60L75.38 9.60Q75.78 10.64 76.71 11.33L76.71 11.33L76.71 11.33Q77.62 12.03 78.81 12.04L78.81 12.04L78.81 12.04Q80.19 12.04 81.12 11.01L81.12 11.01L81.12 11.01Q82.07 9.97 82.07 8.10L82.07 8.10L82.07 8.10Q82.07 5.99 80.91 4.72L80.91 4.72L80.91 4.72Q79.76 3.46 78.25 3.45L78.25 3.45L78.25 3.45Q77.73 3.45 77.19 3.65L77.19 3.65L77.19 3.65Q76.64 3.85 76.14 4.25L76.14 4.25L76.14 4.25Q75.59 4.68 75.27 5.48L75.27 5.48L75.27 5.48Q74.95 6.27 74.95 7.38ZM91.80 3.64L91.41 3.64L91.42 3.08L94.64 3.08L94.64 3.08Q95.78 3.08 96.38 3.21L96.38 3.21L96.38 3.21Q97.02 3.37 97.49 3.75L97.49 3.75L97.49 3.75Q98.49 4.57 98.49 5.71L98.49 5.71L98.49 5.71Q98.49 6.43 98.02 7.04L98.02 7.04L98.02 7.04Q97.53 7.66 96.50 7.92L96.50 7.92L99.18 11.49L99.18 11.49Q99.49 11.87 99.78 11.87L99.78 11.87L100.39 11.87L100.41 12.41L98.38 12.41L95.39 8.10L95.22 8.10L95.22 8.10Q95.18 8.10 95.12 8.11L95.12 8.11L95.12 8.11Q95.07 8.11 95.05 8.11L95.05 8.11L95.05 8.11Q94.17 8.11 93.78 8.03L93.78 8.03L93.78 11.46L93.78 11.46Q93.78 11.76 93.92 11.81L93.92 11.81L93.92 11.81Q94.04 11.87 94.75 11.87L94.75 11.87L95.46 11.87L95.43 12.41L91.70 12.41L91.70 11.87L92.03 11.87L92.03 11.87Q92.49 11.87 92.56 11.81L92.56 11.81L92.56 11.81Q92.64 11.74 92.64 11.46L92.64 11.46L92.64 4.14L92.64 4.14Q92.64 3.82 92.45 3.73L92.45 3.73L92.45 3.73Q92.22 3.64 91.80 3.64L91.80 3.64ZM93.78 4.28L93.78 7.57L93.78 7.57Q93.96 7.70 94.67 7.71L94.67 7.71L94.67 7.71Q95.94 7.71 96.52 7.27L96.52 7.27L96.52 7.27Q97.11 6.84 97.11 5.92L97.11 5.92L97.11 5.92Q97.11 4.92 96.34 4.27L96.34 4.27L96.34 4.27Q95.58 3.64 94.20 3.64L94.20 3.64L94.20 3.64Q93.95 3.64 93.86 3.75L93.86 3.75L93.86 3.75Q93.78 3.84 93.78 4.28L93.78 4.28ZM117.78 3.64L117.74 3.08L121.52 3.08L121.52 3.08Q122.83 3.08 123.70 3.19L123.70 3.19L123.70 3.19Q124.52 3.29 125.21 3.69L125.21 3.69L125.21 3.69Q126.16 4.27 126.67 5.24L126.67 5.24L126.67 5.24Q127.16 6.21 127.16 7.39L127.16 7.39L127.16 7.39Q127.16 8.05 127.02 8.65L127.02 8.65L127.02 8.65Q126.86 9.29 126.47 9.98L126.47 9.98L126.47 9.98Q126.04 10.73 125.48 11.21L125.48 11.21L125.48 11.21Q124.85 11.76 123.88 12.08L123.88 12.08L123.88 12.08Q122.88 12.41 121.60 12.41L121.60 12.41L117.99 12.41L117.97 11.87L118.35 11.87L118.35 11.87Q118.87 11.87 118.97 11.79L118.97 11.79L118.97 11.79Q119.08 11.70 119.08 11.25L119.08 11.25L119.08 4.14L119.08 4.14Q119.08 3.77 118.99 3.71L118.99 3.71L118.99 3.71Q118.88 3.64 118.36 3.64L118.36 3.64L117.78 3.64ZM120.22 4.39L120.22 11.22L120.22 11.22Q120.22 11.67 120.38 11.77L120.38 11.77L120.38 11.77Q120.54 11.87 121.41 11.87L121.41 11.87L121.41 11.87Q122.46 11.87 123.25 11.61L123.25 11.61L123.25 11.61Q124.11 11.35 124.54 10.99L124.54 10.99L124.54 10.99Q125.04 10.58 125.34 10.05L125.34 10.05L125.34 10.05Q125.64 9.52 125.77 8.96L125.77 8.96L125.77 8.96Q125.90 8.41 125.90 7.82L125.90 7.82L125.90 7.82Q125.90 7.03 125.63 6.34L125.63 6.34L125.63 6.34Q125.36 5.65 124.84 5.05L124.84 5.05L124.84 5.05Q124.30 4.46 123.40 4.09L123.40 4.09L123.40 4.09Q122.47 3.73 121.31 3.73L121.31 3.73L120.79 3.73L120.79 3.73Q120.43 3.73 120.33 3.85L120.33 3.85L120.33 3.85Q120.22 3.99 120.22 4.39L120.22 4.39ZM135.15 3.64L135.13 3.08L142.34 3.08L142.34 3.08Q142.36 4.14 142.41 5.28L142.41 5.28L141.87 5.30L141.87 5.30Q141.85 4.66 141.80 4.25L141.80 4.25L141.80 4.25Q141.76 3.89 141.70 3.80L141.70 3.80L141.70 3.80Q141.65 3.71 141.53 3.69L141.53 3.69L141.53 3.69Q141.44 3.68 140.85 3.68L140.85 3.68L138.47 3.68L138.47 3.68Q137.92 3.68 137.78 3.77L137.78 3.77L137.78 3.77Q137.66 3.86 137.66 4.33L137.66 4.33L137.66 6.28L137.66 6.28Q137.66 6.69 137.71 6.76L137.71 6.76L137.71 6.76Q137.78 6.84 138.12 6.84L138.12 6.84L140.23 6.84L140.23 6.84Q140.59 6.84 140.68 6.73L140.68 6.73L140.68 6.73Q140.76 6.63 140.77 6.14L140.77 6.14L140.77 5.61L141.28 5.63L141.28 8.97L140.77 8.97L140.77 8.24L140.77 8.24Q140.77 7.66 140.69 7.57L140.69 7.57L140.69 7.57Q140.61 7.46 140.26 7.46L140.26 7.46L138.16 7.46L138.16 7.46Q137.83 7.46 137.74 7.54L137.74 7.54L137.74 7.54Q137.66 7.63 137.66 7.89L137.66 7.89L137.66 11.20L137.66 11.20Q137.66 11.57 137.74 11.67L137.74 11.67L137.74 11.67Q137.83 11.77 138.10 11.77L138.10 11.77L138.10 11.77Q141.02 11.75 141.54 11.69L141.54 11.69L141.54 11.69Q142.06 11.63 142.15 11.38L142.15 11.38L142.15 11.36L142.16 11.35L142.39 10.17L142.86 10.25L142.52 12.41L135.41 12.41L135.41 11.87L135.78 11.87L135.78 11.87Q136.34 11.87 136.42 11.80L136.42 11.80L136.42 11.80Q136.52 11.72 136.52 11.33L136.52 11.33L136.52 4.24L136.52 4.24Q136.52 3.82 136.37 3.73L136.37 3.73L136.37 3.73Q136.20 3.64 135.54 3.64L135.54 3.64L135.15 3.64ZM151.23 3.64L150.74 3.64L150.75 3.08L154.34 3.08L154.34 3.64L153.71 3.64L153.71 3.64Q153.33 3.64 153.22 3.72L153.22 3.72L153.22 3.72Q153.10 3.80 153.10 4.16L153.10 4.16L153.10 11.22L153.10 11.22Q153.10 11.57 153.19 11.67L153.19 11.67L153.19 11.67Q153.28 11.77 153.57 11.77L153.57 11.77L153.57 11.77Q156.44 11.74 157.10 11.63L157.10 11.63L157.10 11.63Q157.31 11.61 157.39 11.39L157.39 11.39L157.39 11.39Q157.47 11.17 157.67 10.05L157.67 10.05L158.16 10.08L157.70 12.41L150.94 12.41L150.92 11.87L151.31 11.87L151.31 11.87Q151.82 11.87 151.89 11.80L151.89 11.80L151.89 11.80Q151.97 11.72 151.98 11.33L151.98 11.33L151.98 4.09L151.98 4.09Q151.98 3.80 151.82 3.72L151.82 3.72L151.82 3.72Q151.67 3.64 151.23 3.64L151.23 3.64ZM165.91 3.64L165.89 3.08L173.11 3.08L173.11 3.08Q173.12 4.14 173.17 5.28L173.17 5.28L172.63 5.30L172.63 5.30Q172.61 4.66 172.56 4.25L172.56 4.25L172.56 4.25Q172.52 3.89 172.46 3.80L172.46 3.80L172.46 3.80Q172.41 3.71 172.29 3.69L172.29 3.69L172.29 3.69Q172.20 3.68 171.61 3.68L171.61 3.68L169.23 3.68L169.23 3.68Q168.68 3.68 168.54 3.77L168.54 3.77L168.54 3.77Q168.42 3.86 168.42 4.33L168.42 4.33L168.42 6.28L168.42 6.28Q168.42 6.69 168.47 6.76L168.47 6.76L168.47 6.76Q168.54 6.84 168.88 6.84L168.88 6.84L170.99 6.84L170.99 6.84Q171.36 6.84 171.44 6.73L171.44 6.73L171.44 6.73Q171.52 6.63 171.53 6.14L171.53 6.14L171.53 5.61L172.04 5.63L172.04 8.97L171.53 8.97L171.53 8.24L171.53 8.24Q171.53 7.66 171.45 7.57L171.45 7.57L171.45 7.57Q171.37 7.46 171.02 7.46L171.02 7.46L168.92 7.46L168.92 7.46Q168.59 7.46 168.50 7.54L168.50 7.54L168.50 7.54Q168.42 7.63 168.42 7.89L168.42 7.89L168.42 11.20L168.42 11.20Q168.42 11.57 168.50 11.67L168.50 11.67L168.50 11.67Q168.59 11.77 168.86 11.77L168.86 11.77L168.86 11.77Q171.78 11.75 172.31 11.69L172.31 11.69L172.31 11.69Q172.83 11.63 172.91 11.38L172.91 11.38L172.92 11.36L172.92 11.35L173.15 10.17L173.63 10.25L173.28 12.41L166.17 12.41L166.17 11.87L166.54 11.87L166.54 11.87Q167.10 11.87 167.19 11.80L167.19 11.80L167.19 11.80Q167.28 11.72 167.28 11.33L167.28 11.33L167.28 4.24L167.28 4.24Q167.28 3.82 167.13 3.73L167.13 3.73L167.13 3.73Q166.96 3.64 166.30 3.64L166.30 3.64L165.91 3.64ZM181.78 5.35L181.28 5.33L181.28 5.33Q181.41 4.17 181.49 3.08L181.49 3.08L189.57 3.08L189.57 3.08Q189.49 4.13 189.46 4.53L189.46 4.53L189.46 4.53Q189.42 5.26 189.40 5.32L189.40 5.32L188.90 5.30L188.90 5.30Q188.98 4.34 188.98 4.16L188.98 4.16L188.98 4.16Q188.98 3.88 188.84 3.79L188.84 3.79L188.84 3.79Q188.67 3.69 188.26 3.69L188.26 3.69L186.66 3.69L186.66 3.69Q186.15 3.69 186.03 3.79L186.03 3.79L186.03 3.79Q185.93 3.87 185.92 4.36L185.92 4.36L185.92 11.22L185.92 11.22Q185.92 11.66 186.07 11.76L186.07 11.76L186.07 11.76Q186.22 11.87 186.74 11.87L186.74 11.87L187.30 11.87L187.31 12.41L183.62 12.40L183.62 11.87L183.84 11.87L183.84 11.87Q184.51 11.87 184.65 11.79L184.65 11.79L184.65 11.79Q184.80 11.70 184.80 11.28L184.80 11.28L184.80 4.48L184.80 4.48Q184.80 3.92 184.70 3.80L184.70 3.80L184.70 3.80Q184.60 3.69 184.17 3.69L184.17 3.69L182.70 3.69L182.70 3.69Q182.52 3.69 182.45 3.71L182.45 3.71L182.45 3.71Q182.38 3.72 182.27 3.72L182.27 3.72L182.27 3.72Q182.25 3.72 182.13 3.79L182.13 3.79L182.13 3.79Q182.05 3.84 182.02 3.86L182.02 3.86L182.02 3.86Q181.99 3.88 181.95 3.99L181.95 3.99L181.95 3.99Q181.92 4.05 181.90 4.14L181.90 4.14L181.90 4.14Q181.87 4.21 181.85 4.36L181.85 4.36L181.85 4.36Q181.82 4.59 181.82 4.61L181.82 4.61L181.82 4.61Q181.82 4.80 181.81 4.95L181.81 4.95L181.81 4.95Q181.81 5.02 181.80 5.15L181.80 5.15L181.80 5.15Q181.79 5.29 181.78 5.35L181.78 5.35ZM197.32 3.64L197.31 3.08L204.52 3.08L204.52 3.08Q204.53 4.14 204.59 5.28L204.59 5.28L204.04 5.30L204.04 5.30Q204.03 4.66 203.97 4.25L203.97 4.25L203.97 4.25Q203.93 3.89 203.88 3.80L203.88 3.80L203.88 3.80Q203.82 3.71 203.70 3.69L203.70 3.69L203.70 3.69Q203.61 3.68 203.02 3.68L203.02 3.68L200.64 3.68L200.64 3.68Q200.09 3.68 199.95 3.77L199.95 3.77L199.95 3.77Q199.83 3.86 199.83 4.33L199.83 4.33L199.83 6.28L199.83 6.28Q199.83 6.69 199.88 6.76L199.88 6.76L199.88 6.76Q199.95 6.84 200.29 6.84L200.29 6.84L202.41 6.84L202.41 6.84Q202.77 6.84 202.85 6.73L202.85 6.73L202.85 6.73Q202.93 6.63 202.94 6.14L202.94 6.14L202.94 5.61L203.45 5.63L203.45 8.97L202.94 8.97L202.94 8.24L202.94 8.24Q202.94 7.66 202.86 7.57L202.86 7.57L202.86 7.57Q202.78 7.46 202.43 7.46L202.43 7.46L200.33 7.46L200.33 7.46Q200.00 7.46 199.91 7.54L199.91 7.54L199.91 7.54Q199.83 7.63 199.83 7.89L199.83 7.89L199.83 11.20L199.83 11.20Q199.83 11.57 199.91 11.67L199.91 11.67L199.91 11.67Q200.00 11.77 200.27 11.77L200.27 11.77L200.27 11.77Q203.19 11.75 203.72 11.69L203.72 11.69L203.72 11.69Q204.24 11.63 204.32 11.38L204.32 11.38L204.33 11.36L204.33 11.35L204.56 10.17L205.04 10.25L204.69 12.41L197.59 12.41L197.59 11.87L197.96 11.87L197.96 11.87Q198.52 11.87 198.60 11.80L198.60 11.80L198.60 11.80Q198.69 11.72 198.69 11.33L198.69 11.33L198.69 4.24L198.69 4.24Q198.69 3.82 198.54 3.73L198.54 3.73L198.54 3.73Q198.37 3.64 197.72 3.64L197.72 3.64L197.32 3.64Z"></path>
    </g>
</svg>