<svg data-v-d3f97b9e="" xmlns="http://www.w3.org/2000/svg" viewBox="0 0 80.57142857142857 60"><!----><!----><!----><!----><g data-v-d3f97b9e="" id="3f749037-4795-4779-947e-de3a2461f883" transform="matrix(0.8571428656578064,0,0,0.8571428656578064,-0.0000014901161193847656,-2.980232238769531e-7)" stroke="none" fill="white"><path d="M77.5 33H55v-6h33V6H55V0H36v6H16.5L0 14.1V19l16.5 8H36v6H6v21h30v16h3V57h13v13h3V54h22.5L94 45.9V41l-16.5-8zM39 3h13v3H39V3zM17.2 24L3 17.1V16l14.2-7H85v15H17.2zM52 30v3H39v-3h13zm39 14.1L76.8 51H9V36h67.8L91 42.9v1.2z"></path><path d="M20 12h43v3H20zM44 40h30v3H44zM31 40h10v3H31zM66 12h10v3H66z"></path></g><!----></svg>