<svg data-v-29081953="" xmlns="http://www.w3.org/2000/svg" viewBox="0 0 300 300"><!----><defs data-v-29081953=""><!----></defs><rect data-v-29081953="" fill="#F3E9F1" x="0" y="0" width="300px" height="300px" class="logo-background-square"></rect><!----><defs data-v-29081953=""><linearGradient data-v-29081953="" gradientTransform="rotate(25)" id="63e80ea7-adf4-4898-b0d7-9efe1d92bd87" x1="0%" y1="0%" x2="100%" y2="0%"><stop data-v-29081953="" offset="0%" stop-color="#E98C00" stop-opacity="1"></stop><stop data-v-29081953="" offset="100%" stop-color="#8F5BFE" stop-opacity="1"></stop></linearGradient></defs><g data-v-29081953="" id="de3e582c-75bb-4e2a-bb9f-627b31699bd0" fill="url(#63e80ea7-adf4-4898-b0d7-9efe1d92bd87)" stroke="none" transform="matrix(2.340425491333008,0,0,2.340425491333008,40,68.08510638297872)"><path d="M77.5 33H55v-6h33V6H55V0H36v6H16.5L0 14.1V19l16.5 8H36v6H6v21h30v16h3V57h13v13h3V54h22.5L94 45.9V41l-16.5-8zM39 3h13v3H39V3zM17.2 24L3 17.1V16l14.2-7H85v15H17.2zM52 30v3H39v-3h13zm39 14.1L76.8 51H9V36h67.8L91 42.9v1.2z"></path><path d="M20 12h43v3H20zM44 40h30v3H44zM31 40h10v3H31zM66 12h10v3H66z"></path></g><!----></svg>